<svg display="none" xmlns="http://www.w3.org/2000/svg">

<!-- basket-->
    <symbol id="svg-basket" viewBox="0 0 20 20">
        <g>
            <path d="M6.75 11C6.75 10.8011 6.67098 10.6103 6.53033 10.4697C6.38968 10.329 6.19891 10.25 6 10.25C5.80109 10.25 5.61032 10.329 5.46967 10.4697C5.32902 10.6103 5.25 10.8011 5.25 11V15C5.25 15.1989 5.32902 15.3897 5.46967 15.5303C5.61032 15.671 5.80109 15.75 6 15.75C6.19891 15.75 6.38968 15.671 6.53033 15.5303C6.67098 15.3897 6.75 15.1989 6.75 15V11ZM14 10.25C14.1989 10.25 14.3897 10.329 14.5303 10.4697C14.671 10.6103 14.75 10.8011 14.75 11V15C14.75 15.1989 14.671 15.3897 14.5303 15.5303C14.3897 15.671 14.1989 15.75 14 15.75C13.8011 15.75 13.6103 15.671 13.4697 15.5303C13.329 15.3897 13.25 15.1989 13.25 15V11C13.25 10.8011 13.329 10.6103 13.4697 10.4697C13.6103 10.329 13.8011 10.25 14 10.25ZM10.75 11C10.75 10.8011 10.671 10.6103 10.5303 10.4697C10.3897 10.329 10.1989 10.25 10 10.25C9.80109 10.25 9.61032 10.329 9.46967 10.4697C9.32902 10.6103 9.25 10.8011 9.25 11V15C9.25 15.1989 9.32902 15.3897 9.46967 15.5303C9.61032 15.671 9.80109 15.75 10 15.75C10.1989 15.75 10.3897 15.671 10.5303 15.5303C10.671 15.3897 10.75 15.1989 10.75 15V11Z"/>
            <path fill-rule="evenodd" clip-rule="evenodd" d="M15.274 1.473C14.798 1.287 14.265 1.256 13.582 1.251C13.4402 0.951472 13.2162 0.69838 12.9361 0.521172C12.656 0.343965 12.3314 0.249927 12 0.25H8C7.66869 0.249837 7.34414 0.343726 7.06409 0.52075C6.78404 0.697774 6.55999 0.950659 6.418 1.25C5.734 1.256 5.202 1.287 4.726 1.473C4.15777 1.69527 3.66359 2.07301 3.3 2.563C2.933 3.056 2.76 3.69 2.524 4.561L1.896 6.864C1.50261 7.06248 1.15778 7.34518 0.886001 7.692C0.264001 8.489 0.154001 9.438 0.265001 10.526C0.372001 11.582 0.705001 12.912 1.121 14.576L1.147 14.683C1.411 15.735 1.624 16.59 1.878 17.257C2.143 17.953 2.48 18.523 3.034 18.956C3.589 19.389 4.224 19.576 4.963 19.666C5.671 19.75 6.553 19.75 7.638 19.75H12.362C13.447 19.75 14.328 19.75 15.037 19.665C15.777 19.577 16.411 19.389 16.965 18.955C17.52 18.523 17.856 17.953 18.121 17.257C18.376 16.59 18.589 15.735 18.852 14.682L18.879 14.577C19.295 12.912 19.627 11.582 19.735 10.527C19.845 9.437 19.735 8.489 19.113 7.692C18.8415 7.34529 18.497 7.0626 18.104 6.864L17.476 4.561C17.239 3.69 17.066 3.056 16.7 2.562C16.3363 2.07238 15.8421 1.695 15.274 1.473ZM5.272 2.87C5.492 2.784 5.758 2.759 6.419 2.752C6.701 3.342 7.303 3.75 7.999 3.75H11.999C12.697 3.75 13.299 3.342 13.581 2.752C14.242 2.759 14.508 2.784 14.728 2.87C15.034 2.99 15.3 3.193 15.496 3.457C15.672 3.694 15.775 4.025 16.066 5.092L16.42 6.389C15.382 6.25 14.042 6.25 12.377 6.25H7.622C5.958 6.25 4.618 6.25 3.58 6.389L3.934 5.092C4.224 4.025 4.328 3.694 4.504 3.457C4.69981 3.19311 4.96597 2.98968 5.272 2.87ZM8 1.75C7.9337 1.75 7.87011 1.77634 7.82322 1.82322C7.77634 1.87011 7.75 1.9337 7.75 2C7.75 2.0663 7.77634 2.12989 7.82322 2.17678C7.87011 2.22366 7.9337 2.25 8 2.25H12C12.0663 2.25 12.1299 2.22366 12.1768 2.17678C12.2237 2.12989 12.25 2.0663 12.25 2C12.25 1.9337 12.2237 1.87011 12.1768 1.82322C12.1299 1.77634 12.0663 1.75 12 1.75H8ZM2.069 8.615C2.348 8.258 2.789 8.018 3.699 7.886C4.63 7.752 5.892 7.75 7.685 7.75H12.315C14.108 7.75 15.369 7.752 16.3 7.886C17.211 8.018 17.652 8.258 17.931 8.616C18.21 8.973 18.336 9.458 18.242 10.374C18.147 11.31 17.843 12.534 17.408 14.274C17.131 15.382 16.938 16.15 16.72 16.724C16.508 17.278 16.301 17.571 16.042 17.774C15.783 17.976 15.448 18.105 14.859 18.176C14.249 18.249 13.459 18.25 12.315 18.25H7.685C6.541 18.25 5.75 18.249 5.141 18.176C4.551 18.106 4.217 17.976 3.958 17.774C3.698 17.571 3.491 17.278 3.28 16.724C3.062 16.15 2.869 15.382 2.591 14.274C2.157 12.534 1.852 11.31 1.757 10.374C1.664 9.458 1.79 8.972 2.069 8.615Z"/>
        </g>
    </symbol>

<!-- favorite -->
     <symbol id="svg-favorite" viewBox="0 0 22 19">
        <g>
            <path d="M6.5 1C3.4625 1 1 3.4625 1 6.5C1 12 7.5 17 11 18.163C14.5 17 21 12 21 6.5C21 3.4625 18.5375 1 15.5 1C13.64 1 11.995 1.9235 11 3.337C10.4928 2.61469 9.81897 2.0252 9.03568 1.61841C8.25238 1.21162 7.38263 0.999502 6.5 1Z" stroke-width="1.5" stroke-linecap="round" stroke-linejoin="round"/>
        </g>
    </symbol> 

<!-- users -->
     <symbol id="svg-users" viewBox="0 0 18 20">
        <g>
            <path d="M1 19V18C1 14.69 3.69 12 7 12H11C14.31 12 17 14.69 17 18V19" stroke-width="1.5" stroke-linecap="round" stroke-linejoin="round"/>
            <path d="M9 9C6.79 9 5 7.21 5 5C5 2.79 6.79 1 9 1C11.21 1 13 2.79 13 5C13 7.21 11.21 9 9 9Z" stroke-width="1.5" stroke-linecap="round" stroke-linejoin="round"/>
        </g>
    </symbol> 

<!-- search -->
     <symbol id="svg-search" viewBox="0 0 20 20">
        <g>
            <path d="M19 19L13 13M1 8C1 8.91925 1.18106 9.82951 1.53284 10.6788C1.88463 11.5281 2.40024 12.2997 3.05025 12.9497C3.70026 13.5998 4.47194 14.1154 5.32122 14.4672C6.1705 14.8189 7.08075 15 8 15C8.91925 15 9.82951 14.8189 10.6788 14.4672C11.5281 14.1154 12.2997 13.5998 12.9497 12.9497C13.5998 12.2997 14.1154 11.5281 14.4672 10.6788C14.8189 9.82951 15 8.91925 15 8C15 7.08075 14.8189 6.1705 14.4672 5.32122C14.1154 4.47194 13.5998 3.70026 12.9497 3.05025C12.2997 2.40024 11.5281 1.88463 10.6788 1.53284C9.82951 1.18106 8.91925 1 8 1C7.08075 1 6.1705 1.18106 5.32122 1.53284C4.47194 1.88463 3.70026 2.40024 3.05025 3.05025C2.40024 3.70026 1.88463 4.47194 1.53284 5.32122C1.18106 6.1705 1 7.08075 1 8Z" stroke-width="1.5" stroke-linecap="round" stroke-linejoin="round"/>
        </g>
    </symbol> 

<!-- compare -->
     <symbol id="svg-compare" viewBox="0 0 18 18">
        <g>
            <path d="M17 4H8M11 14H2" stroke="#1E1E1E" stroke-width="1.5" stroke-linecap="round" stroke-linejoin="round"/>
            <path d="M14 17C15.6569 17 17 15.6569 17 14C17 12.3431 15.6569 11 14 11C12.3431 11 11 12.3431 11 14C11 15.6569 12.3431 17 14 17Z" stroke="#1E1E1E" stroke-width="1.5" stroke-linecap="round" stroke-linejoin="round"/>
            <path d="M4 7C5.65685 7 7 5.65685 7 4C7 2.34315 5.65685 1 4 1C2.34315 1 1 2.34315 1 4C1 5.65685 2.34315 7 4 7Z" stroke="#1E1E1E" stroke-width="1.5" stroke-linecap="round" stroke-linejoin="round"/>
        </g>
    </symbol> 

<!-- close -->
     <symbol id="svg-close" viewBox="0 0 18 18">
        <g>
            <path d="M17 17L1 1M17 1L1 17" stroke="#1E1E1E" stroke-width="1.5" stroke-linecap="round"/>
        </g>
    </symbol> 


<!-- plus -->
     <symbol id="svg-plus" viewBox="0 0 18 18">
        <g>
            <path d="M1 9H17M9 17V9L9 1" stroke="#1E1E1E" stroke-width="1.5" stroke-linecap="round"/>
        </g>
    </symbol> 
    

<!-- minus -->
     <symbol id="svg-minus" viewBox="0 0 18 2">
        <g>
            <path d="M1 1H17" stroke="#1E1E1E" stroke-width="1.5" stroke-linecap="round"/>
        </g>
    </symbol> 

<!-- check -->
     <symbol id="svg-check" viewBox="0 0 18 13">
        <g>
            <path d="M17 1L11.6093 7.46881C9.47319 10.0322 8.40512 11.3139 7 11.3139C5.59488 11.3139 4.52681 10.0322 2.39067 7.46881L1 5.8" stroke="#1E1E1E" stroke-width="1.5" stroke-linecap="round"/>
        </g>
    </symbol> 

<!-- drop -->
     <symbol id="svg-" viewBox="0 0 12 6">
        <g>
            <path d="M11 5L9.25269 3.23703C7.85925 1.8311 7.16253 1.12813 6.31333 1.01989C6.10527 0.99337 5.89473 0.99337 5.68667 1.01989C4.83748 1.12813 4.14075 1.8311 2.74731 3.23703L1 5" stroke="#1E1E1E" stroke-width="1.5" stroke-linecap="round"/>
        </g>
    </symbol> 

<!-- arrow -->
    <symbol id="svg-arrow" viewBox="0 0 18 12">
        <g>
            <path d="M5.52796 1.53269C5.82216 1.24111 5.82428 0.766238 5.53269 0.472041C5.24111 0.177844 4.76624 0.175726 4.47204 0.467309L2.67731 2.2461C2.00134 2.91604 1.44886 3.46359 1.05706 3.95146C0.649628 4.45878 0.354695 4.97372 0.275909 5.59184C0.241364 5.86286 0.241364 6.13714 0.275909 6.40816C0.354695 7.02628 0.649627 7.54122 1.05706 8.04854C1.44886 8.53642 2.00134 9.08396 2.67732 9.75391L4.47204 11.5327C4.76624 11.8243 5.24111 11.8222 5.53269 11.528C5.82427 11.2338 5.82216 10.7589 5.52796 10.4673L3.76499 8.72C3.0495 8.01086 2.55869 7.52282 2.22659 7.10929C2.11867 6.97491 2.03446 6.8566 1.96908 6.75H17C17.4142 6.75 17.75 6.41421 17.75 6C17.75 5.58579 17.4142 5.25 17 5.25H1.96908C2.03446 5.1434 2.11867 5.02509 2.22659 4.89071C2.55869 4.47718 3.0495 3.98914 3.76499 3.28L5.52796 1.53269Z"/>
        </g>
    </symbol>

<!-- tg -->
     <symbol id="svg-tg" viewBox="0 0 68 68">
        <g>
            <path fill-rule="evenodd" clip-rule="evenodd" d="M68 34C68 52.7765 52.7765 68 34 68C15.2235 68 0 52.7765 0 34C0 15.2235 15.2235 0 34 0C52.7765 0 68 15.2235 68 34ZM35.2183 25.1005C31.9128 26.4756 25.3036 29.3222 15.3907 33.6402C13.7813 34.2805 12.9379 34.9067 12.8605 35.5187C12.7302 36.5557 14.0278 36.9637 15.7902 37.5162L16.5353 37.7542C18.2722 38.318 20.6068 38.9782 21.8195 39.0037C22.9207 39.0263 24.1504 38.573 25.5085 37.6437C34.7678 31.3914 39.5477 28.2313 39.848 28.1633C40.0605 28.1152 40.3552 28.0528 40.5535 28.2313C40.7518 28.407 40.732 28.7413 40.7122 28.832C40.5818 29.3788 35.4988 34.1077 32.8638 36.5557C32.0422 37.3178 31.4613 37.859 31.3423 37.9837C31.0722 38.2576 30.8059 38.5211 30.5433 38.7742C28.9283 40.3268 27.7213 41.4942 30.6113 43.3982C31.9997 44.3133 33.1103 45.0698 34.2182 45.8235C35.428 46.648 36.635 47.4697 38.199 48.4953C38.5957 48.7598 38.9782 49.0242 39.3465 49.2887C40.7547 50.2945 42.0212 51.1955 43.5852 51.0538C44.4918 50.9688 45.4325 50.116 45.9085 47.5688C47.0333 41.5452 49.249 28.5005 49.7618 23.1228C49.7958 22.6764 49.7768 22.2275 49.7052 21.7855C49.6656 21.4278 49.4913 21.0986 49.2178 20.8647C48.8127 20.5332 48.1837 20.4623 47.9003 20.468C46.6225 20.4907 44.6618 21.1735 35.2183 25.1005Z"/>
        </g>
    </symbol> 

<!-- wa -->
     <symbol id="svg-wa" viewBox="0 0 68 68">
        <g>
            <path d="M68 15.47C67.9595 14.0033 67.8461 12.5395 67.66 11.084C67.4057 9.80953 66.9827 8.57465 66.402 7.412C65.7921 6.15227 64.9762 5.00315 63.988 4.012C62.9891 3.03306 61.8416 2.21832 60.588 1.598C59.4237 1.02906 58.1888 0.617454 56.916 0.374C55.4748 0.156181 54.0212 0.0312566 52.564 0H15.47C14.0033 0.0404627 12.5395 0.153936 11.084 0.34C9.80953 0.594265 8.57465 1.01733 7.412 1.598C6.15227 2.20793 5.00315 3.0238 4.012 4.012C3.03306 5.01093 2.21832 6.15845 1.598 7.412C1.02906 8.57634 0.617454 9.81116 0.374 11.084C0.156181 12.5252 0.0312566 13.9788 0 15.436V52.53C0.0404627 53.9967 0.153936 55.4606 0.34 56.916C0.594265 58.1905 1.01733 59.4254 1.598 60.588C2.20793 61.8477 3.0238 62.9968 4.012 63.988C5.01093 64.9669 6.15845 65.7817 7.412 66.402C8.57634 66.9709 9.81116 67.3825 11.084 67.626C12.5252 67.8438 13.9788 67.9687 15.436 68H52.53C53.9967 67.9595 55.4606 67.8461 56.916 67.66C58.1905 67.4057 59.4254 66.9827 60.588 66.402C61.8477 65.7921 62.9968 64.9762 63.988 63.988C64.9669 62.9891 65.7817 61.8416 66.402 60.588C66.9709 59.4237 67.3825 58.1888 67.626 56.916C67.8438 55.4748 67.9687 54.0212 68 52.564V15.47ZM34.782 57.8C30.6984 57.7828 26.6859 56.73 23.12 54.74L10.2 58.14L13.6 45.492C11.4059 41.8086 10.2323 37.6073 10.2 33.32C10.2135 28.5019 11.6525 23.7956 14.3356 19.7938C17.0188 15.792 20.8261 12.6736 25.2781 10.8314C29.7301 8.98926 34.6276 8.50568 39.3539 9.44159C44.0802 10.3775 48.4239 12.6911 51.8379 16.0909C55.2518 19.4907 57.5834 23.8247 58.539 28.547C59.4945 33.2694 59.0313 38.1689 57.2077 42.6285C55.384 47.0882 52.2815 50.9084 48.2909 53.6082C44.3003 56.3079 39.6 57.7664 34.782 57.8ZM34.782 13.158C31.1774 13.1992 27.648 14.1949 24.5533 16.0437C21.4586 17.8925 18.909 20.5283 17.1642 23.6828C15.4194 26.8373 14.5416 30.3978 14.6203 34.0018C14.6989 37.6058 15.7312 41.1246 17.612 44.2L18.088 44.982L16.048 52.428L23.8 50.32L24.548 50.762C27.6406 52.5836 31.159 53.557 34.748 53.584C40.1584 53.584 45.3472 51.4347 49.173 47.609C52.9987 43.7832 55.148 38.5944 55.148 33.184C55.148 27.7736 52.9987 22.5848 49.173 18.759C45.3472 14.9333 40.1584 12.784 34.748 12.784L34.782 13.158ZM46.682 42.126C46.2367 42.8688 45.6404 43.5098 44.9317 44.0076C44.2231 44.5055 43.4178 44.849 42.568 45.016C41.2985 45.2523 39.9902 45.1705 38.76 44.778C37.6021 44.4151 36.4667 43.9837 35.36 43.486C31.1567 41.3769 27.5721 38.214 24.956 34.306C23.5378 32.4935 22.6757 30.3086 22.474 28.016C22.4538 27.0633 22.634 26.1169 23.003 25.2384C23.372 24.3598 23.9215 23.5685 24.616 22.916C24.8206 22.6841 25.0715 22.4977 25.3526 22.3688C25.6337 22.24 25.9388 22.1716 26.248 22.168H27.2C27.574 22.168 28.084 22.168 28.56 23.222C29.036 24.276 30.294 27.438 30.464 27.744C30.5475 27.9071 30.5911 28.0877 30.5911 28.271C30.5911 28.4543 30.5475 28.6349 30.464 28.798C30.3157 29.1685 30.1091 29.5128 29.852 29.818C29.546 30.192 29.206 30.634 28.934 30.906C28.662 31.178 28.322 31.518 28.662 32.13C29.5886 33.6902 30.7336 35.1099 32.062 36.346C33.5101 37.6256 35.1659 38.6489 36.958 39.372C37.57 39.678 37.944 39.644 38.284 39.372C38.624 39.1 39.814 37.604 40.222 36.992C40.63 36.38 41.038 36.482 41.582 36.686C42.126 36.89 45.152 38.352 45.764 38.658C46.376 38.964 46.75 39.1 46.92 39.372C47.0675 40.2619 46.9855 41.1746 46.682 42.024V42.126Z"/>
        </g>
    </symbol> 

<!-- vk -->
     <symbol id="svg-vk" viewBox="0 0 68 68">
        <g>
            <path d="M26.8855 0.0111855L28.951 0.00268555H39.049L41.1173 0.0111855L43.707 0.0395189L44.9338 0.0593522L46.1182 0.0905189L47.26 0.130186L48.3593 0.175519L49.419 0.235019L50.439 0.305852L51.4165 0.390852L52.36 0.484352C57.29 1.03969 60.6702 2.22969 63.2202 4.77969C65.7702 7.32969 66.9602 10.707 67.5155 15.6399L67.6118 16.5834L67.694 17.5637L67.7648 18.5837L67.8215 19.6405L67.8923 21.3065L67.9263 22.4682L67.9632 24.2929L67.9887 26.8854L68 29.662L67.9972 39.0489L67.9887 41.1172L67.9603 43.7069L67.9405 44.9337L67.9093 46.118L67.8697 47.2599L67.8243 48.3592L67.7648 49.4189L67.694 50.4389L67.609 51.4164L67.5155 52.3599C66.9602 57.2899 65.7702 60.67 63.2202 63.22C60.6702 65.77 57.2928 66.96 52.36 67.5154L51.4165 67.6117L50.4362 67.6939L49.4162 67.7647L48.3593 67.8214L46.6933 67.8922L45.5317 67.9262L43.707 67.963L41.1145 67.9885L38.3378 67.9999L28.951 67.997L26.8827 67.9885L24.293 67.9602L23.0662 67.9404L21.8818 67.9092L20.74 67.8695L19.6407 67.8242L18.581 67.7647L17.561 67.6939L16.5835 67.6089L15.64 67.5154C10.71 66.96 7.32983 65.77 4.77983 63.22C2.22983 60.67 1.03983 57.2927 0.4845 52.3599L0.388167 51.4164L0.306 50.436L0.235167 49.416L0.1785 48.3592L0.107667 46.6932L0.0736667 45.5315L0.0368333 43.7069L0.0113333 41.1144L0 38.3377L0.00283333 28.9509L0.0113333 26.8825L0.0396667 24.2929L0.0595 23.066L0.0906667 21.8817L0.130333 20.7399L0.175667 19.6405L0.235167 18.5809L0.306 17.5609L0.391 16.5834L0.4845 15.6399C1.03983 10.7099 2.22983 7.32969 4.77983 4.77969C7.32983 2.22969 10.7072 1.03969 15.64 0.484352L16.5835 0.388019L17.5638 0.305852L18.5838 0.235019L19.6407 0.178352L21.3067 0.107519L22.4683 0.0735189L24.293 0.0366855L26.8855 0.0111855ZM19.2383 20.6832H11.475C11.8433 38.3632 20.6833 48.9882 36.1817 48.9882H37.06V38.8732C42.755 39.4399 47.0617 43.6049 48.79 48.9882H56.8367C54.6267 40.9415 48.8183 36.4932 45.1917 34.7932C48.8183 32.6965 53.9183 27.5965 55.1367 20.6832H47.8267C46.24 26.2932 41.5367 31.3932 37.06 31.8749V20.6832H29.75V40.2899C25.2167 39.1565 19.4933 33.6599 19.2383 20.6832Z"/>
        </g>
    </symbol> 

<!-- close -->
     <symbol id="svg-close" viewBox="0 0 24 24">
        <g>
            <path d="M26.8855 0.0111855L28.951 0.00268555H39.049L41.1173 0.0111855L43.707 0.0395189L44.9338 0.0593522L46.1182 0.0905189L47.26 0.130186L48.3593 0.175519L49.419 0.235019L50.439 0.305852L51.4165 0.390852L52.36 0.484352C57.29 1.03969 60.6702 2.22969 63.2202 4.77969C65.7702 7.32969 66.9602 10.707 67.5155 15.6399L67.6118 16.5834L67.694 17.5637L67.7648 18.5837L67.8215 19.6405L67.8923 21.3065L67.9263 22.4682L67.9632 24.2929L67.9887 26.8854L68 29.662L67.9972 39.0489L67.9887 41.1172L67.9603 43.7069L67.9405 44.9337L67.9093 46.118L67.8697 47.2599L67.8243 48.3592L67.7648 49.4189L67.694 50.4389L67.609 51.4164L67.5155 52.3599C66.9602 57.2899 65.7702 60.67 63.2202 63.22C60.6702 65.77 57.2928 66.96 52.36 67.5154L51.4165 67.6117L50.4362 67.6939L49.4162 67.7647L48.3593 67.8214L46.6933 67.8922L45.5317 67.9262L43.707 67.963L41.1145 67.9885L38.3378 67.9999L28.951 67.997L26.8827 67.9885L24.293 67.9602L23.0662 67.9404L21.8818 67.9092L20.74 67.8695L19.6407 67.8242L18.581 67.7647L17.561 67.6939L16.5835 67.6089L15.64 67.5154C10.71 66.96 7.32983 65.77 4.77983 63.22C2.22983 60.67 1.03983 57.2927 0.4845 52.3599L0.388167 51.4164L0.306 50.436L0.235167 49.416L0.1785 48.3592L0.107667 46.6932L0.0736667 45.5315L0.0368333 43.7069L0.0113333 41.1144L0 38.3377L0.00283333 28.9509L0.0113333 26.8825L0.0396667 24.2929L0.0595 23.066L0.0906667 21.8817L0.130333 20.7399L0.175667 19.6405L0.235167 18.5809L0.306 17.5609L0.391 16.5834L0.4845 15.6399C1.03983 10.7099 2.22983 7.32969 4.77983 4.77969C7.32983 2.22969 10.7072 1.03969 15.64 0.484352L16.5835 0.388019L17.5638 0.305852L18.5838 0.235019L19.6407 0.178352L21.3067 0.107519L22.4683 0.0735189L24.293 0.0366855L26.8855 0.0111855ZM19.2383 20.6832H11.475C11.8433 38.3632 20.6833 48.9882 36.1817 48.9882H37.06V38.8732C42.755 39.4399 47.0617 43.6049 48.79 48.9882H56.8367C54.6267 40.9415 48.8183 36.4932 45.1917 34.7932C48.8183 32.6965 53.9183 27.5965 55.1367 20.6832H47.8267C46.24 26.2932 41.5367 31.3932 37.06 31.8749V20.6832H29.75V40.2899C25.2167 39.1565 19.4933 33.6599 19.2383 20.6832Z"/>
        </g>
    </symbol> 

<!-- phone -->
     <symbol id="svg-phone" viewBox="0 0 32 32">
        <g>
            <path d="M7.58005 3.07308C7.46567 2.92595 7.3213 2.80484 7.15652 2.71779C6.99174 2.63075 6.81032 2.57976 6.62432 2.56821C6.43832 2.55667 6.25199 2.58483 6.07771 2.65083C5.90343 2.71683 5.74518 2.81916 5.61349 2.95102L3.61012 4.95633C2.6743 5.89408 2.32943 7.22127 2.73824 8.38571C4.4369 13.2045 7.19673 17.5799 10.8137 21.1887C14.4225 24.8057 18.798 27.5655 23.6167 29.2642C24.7812 29.673 26.1084 29.3281 27.0461 28.3923L29.0495 26.389C29.1813 26.2573 29.2837 26.099 29.3497 25.9247C29.4157 25.7505 29.4438 25.5641 29.4323 25.3781C29.4208 25.1921 29.3698 25.0107 29.2827 24.8459C29.1957 24.6811 29.0746 24.5368 28.9274 24.4224L24.4576 20.9465C24.3003 20.8249 24.1175 20.7404 23.9228 20.6995C23.7282 20.6585 23.5269 20.6622 23.3339 20.7101L19.0907 21.77C18.5243 21.9106 17.9312 21.9026 17.3688 21.7468C16.8063 21.591 16.2937 21.2926 15.8803 20.8806L11.1218 16.1202C10.7095 15.7071 10.4108 15.1945 10.2546 14.632C10.0985 14.0696 10.0902 13.4764 10.2306 12.9098L11.2923 8.66665C11.3403 8.47364 11.3439 8.27228 11.303 8.07766C11.2621 7.88304 11.1776 7.70022 11.0559 7.5429L7.58005 3.07308ZM4.15068 1.49015C4.48973 1.15099 4.89706 0.887836 5.34561 0.718171C5.79416 0.548505 6.27368 0.476207 6.75232 0.506076C7.23095 0.535945 7.69776 0.667298 8.12174 0.891413C8.54572 1.11553 8.91717 1.42728 9.21143 1.80596L12.6873 6.27383C13.3247 7.0934 13.5495 8.16096 13.2976 9.16846L12.2378 13.4116C12.1834 13.6314 12.1865 13.8615 12.2469 14.0797C12.3074 14.2979 12.423 14.4969 12.5827 14.6574L17.3431 19.4178C17.5038 19.5778 17.7031 19.6937 17.9217 19.7541C18.1403 19.8145 18.3708 19.8175 18.5909 19.7627L22.8321 18.7029C23.3293 18.5793 23.8481 18.57 24.3494 18.6757C24.8508 18.7814 25.3217 18.9994 25.7267 19.3132L30.1946 22.7891C31.8007 24.0388 31.948 26.4122 30.5104 27.8479L28.507 29.8513C27.0732 31.285 24.9304 31.9147 22.9328 31.2114C17.8191 29.4145 13.1766 26.4873 9.35093 22.6476C5.51152 18.8225 2.58431 14.1807 0.787178 9.06771C0.085803 7.07208 0.71549 4.92727 2.14924 3.49352L4.15068 1.49015Z"/>
        </g>
    </symbol> 

<!-- arrow-scroll -->
     <symbol id="svg-scroll" viewBox="0 0 16 87">
        <g>
            <path d="M7.29289 86.7071C7.68341 87.0976 8.31658 87.0976 8.7071 86.7071L15.0711 80.3431C15.4616 79.9526 15.4616 79.3195 15.0711 78.9289C14.6805 78.5384 14.0474 78.5384 13.6569 78.9289L8 84.5858L2.34314 78.9289C1.95262 78.5384 1.31945 78.5384 0.928929 78.9289C0.538404 79.3195 0.538404 79.9526 0.928929 80.3431L7.29289 86.7071ZM7 -4.37113e-08L7 86L9 86L9 4.37113e-08L7 -4.37113e-08Z"/>
        </g>
    </symbol> 

<!-- arrow-scroll -->
     <symbol id="svg-mark" viewBox="0 0 20 21">
        <g>
           <path d="M10 0.75C4.62391 0.75 0.25 5.12391 0.25 10.5C0.25 15.8761 4.62391 20.25 10 20.25C15.3761 20.25 19.75 15.8761 19.75 10.5C19.75 5.12391 15.3761 0.75 10 0.75ZM15.0742 7.23234L8.77422 14.7323C8.70511 14.8147 8.61912 14.8812 8.52207 14.9273C8.42502 14.9735 8.31918 14.9983 8.21172 15H8.19906C8.09394 15 7.99 14.9778 7.89398 14.935C7.79797 14.8922 7.71202 14.8297 7.64172 14.7516L4.94172 11.7516C4.87315 11.6788 4.81981 11.5931 4.78483 11.4995C4.74986 11.4059 4.73395 11.3062 4.73805 11.2063C4.74215 11.1064 4.76617 11.0084 4.8087 10.9179C4.85124 10.8275 4.91142 10.7464 4.98572 10.6796C5.06002 10.6127 5.14694 10.5614 5.24136 10.5286C5.33579 10.4958 5.43581 10.4822 5.53556 10.4886C5.63531 10.495 5.73277 10.5213 5.82222 10.5659C5.91166 10.6106 5.99128 10.6726 6.05641 10.7484L8.17938 13.1072L13.9258 6.26766C14.0547 6.11863 14.237 6.02631 14.4335 6.01066C14.6299 5.99501 14.8246 6.05728 14.9754 6.18402C15.1263 6.31075 15.2212 6.49176 15.2397 6.68793C15.2582 6.8841 15.1988 7.07966 15.0742 7.23234Z"/>
        </g>
    </symbol> 

<!-- arrow-slider -->
    <symbol id="svg-arrow-slider-left" viewBox="0 0 18 12">
        <g>
            <path d="M5.52796 1.53269C5.82216 1.24111 5.82428 0.766238 5.53269 0.472041C5.24111 0.177844 4.76624 0.175726 4.47204 0.467309L2.67731 2.2461C2.00134 2.91604 1.44886 3.46359 1.05706 3.95146C0.649628 4.45878 0.354695 4.97372 0.275909 5.59184C0.241364 5.86286 0.241364 6.13714 0.275909 6.40816C0.354695 7.02628 0.649627 7.54122 1.05706 8.04854C1.44886 8.53642 2.00134 9.08396 2.67732 9.75391L4.47204 11.5327C4.76624 11.8243 5.24111 11.8222 5.53269 11.528C5.82427 11.2338 5.82216 10.7589 5.52796 10.4673L3.76499 8.72C3.0495 8.01086 2.55869 7.52282 2.22659 7.10929C2.11867 6.97491 2.03446 6.8566 1.96908 6.75H17C17.4142 6.75 17.75 6.41421 17.75 6C17.75 5.58579 17.4142 5.25 17 5.25H1.96908C2.03446 5.1434 2.11867 5.02509 2.22659 4.89071C2.55869 4.47718 3.0495 3.98914 3.76499 3.28L5.52796 1.53269Z"/>
            <path d="M5.52796 1.53269C5.82216 1.24111 5.82428 0.766238 5.53269 0.472041C5.24111 0.177844 4.76624 0.175726 4.47204 0.467309L2.67731 2.2461C2.00134 2.91604 1.44886 3.46359 1.05706 3.95146C0.649628 4.45878 0.354695 4.97372 0.275909 5.59184C0.241364 5.86286 0.241364 6.13714 0.275909 6.40816C0.354695 7.02628 0.649627 7.54122 1.05706 8.04854C1.44886 8.53642 2.00134 9.08396 2.67732 9.75391L4.47204 11.5327C4.76624 11.8243 5.24111 11.8222 5.53269 11.528C5.82427 11.2338 5.82216 10.7589 5.52796 10.4673L3.76499 8.72C3.0495 8.01086 2.55869 7.52282 2.22659 7.10929C2.11867 6.97491 2.03446 6.8566 1.96908 6.75H17C17.4142 6.75 17.75 6.41421 17.75 6C17.75 5.58579 17.4142 5.25 17 5.25H1.96908C2.03446 5.1434 2.11867 5.02509 2.22659 4.89071C2.55869 4.47718 3.0495 3.98914 3.76499 3.28L5.52796 1.53269Z" fill-opacity="0.2"/>
            <path d="M5.52796 1.53269C5.82216 1.24111 5.82428 0.766238 5.53269 0.472041C5.24111 0.177844 4.76624 0.175726 4.47204 0.467309L2.67731 2.2461C2.00134 2.91604 1.44886 3.46359 1.05706 3.95146C0.649628 4.45878 0.354695 4.97372 0.275909 5.59184C0.241364 5.86286 0.241364 6.13714 0.275909 6.40816C0.354695 7.02628 0.649627 7.54122 1.05706 8.04854C1.44886 8.53642 2.00134 9.08396 2.67732 9.75391L4.47204 11.5327C4.76624 11.8243 5.24111 11.8222 5.53269 11.528C5.82427 11.2338 5.82216 10.7589 5.52796 10.4673L3.76499 8.72C3.0495 8.01086 2.55869 7.52282 2.22659 7.10929C2.11867 6.97491 2.03446 6.8566 1.96908 6.75H17C17.4142 6.75 17.75 6.41421 17.75 6C17.75 5.58579 17.4142 5.25 17 5.25H1.96908C2.03446 5.1434 2.11867 5.02509 2.22659 4.89071C2.55869 4.47718 3.0495 3.98914 3.76499 3.28L5.52796 1.53269Z" fill-opacity="0.2"/>
        </g>
    </symbol> 

<!-- arrow-hide -->
     <symbol id="svg-hide" viewBox="0 0 12 6">
        <g>
            <path d="M11 1L9.25269 2.76297C7.85925 4.1689 7.16253 4.87187 6.31333 4.98011C6.10527 5.00663 5.89473 5.00663 5.68667 4.98011C4.83748 4.87187 4.14075 4.1689 2.74731 2.76297L1 1" stroke="#1E1E1E" stroke-width="1.5" stroke-linecap="round"/>
            <path d="M11 1L9.25269 2.76297C7.85925 4.1689 7.16253 4.87187 6.31333 4.98011C6.10527 5.00663 5.89473 5.00663 5.68667 4.98011C4.83748 4.87187 4.14075 4.1689 2.74731 2.76297L1 1" stroke="black" stroke-opacity="0.2" stroke-width="1.5" stroke-linecap="round"/>
            <path d="M11 1L9.25269 2.76297C7.85925 4.1689 7.16253 4.87187 6.31333 4.98011C6.10527 5.00663 5.89473 5.00663 5.68667 4.98011C4.83748 4.87187 4.14075 4.1689 2.74731 2.76297L1 1" stroke="black" stroke-opacity="0.2" stroke-width="1.5" stroke-linecap="round"/>
        </g>
    </symbol> 

<!-- reset -->
     <symbol id="svg-reset" viewBox="0 0 20 19">
        <g>
            <path d="M1 1.5L8.2 9.909V16.222L11.8 18V9.909L19 1.5H1Z" stroke-width="1.5" stroke-linejoin="round"/>
        </g>
    </symbol> 

<!-- filter -->
     <symbol id="svg-filter" viewBox="0 0 18 18">
        <g>
            <path d="M17 4H8M11 14H2" stroke="#1E1E1E" stroke-width="1.5" stroke-linecap="round" stroke-linejoin="round"/>
            <path d="M17 4H8M11 14H2" stroke="black" stroke-opacity="0.2" stroke-width="1.5" stroke-linecap="round" stroke-linejoin="round"/>
            <path d="M17 4H8M11 14H2" stroke="black" stroke-opacity="0.2" stroke-width="1.5" stroke-linecap="round" stroke-linejoin="round"/>
            <path d="M14 17C15.6569 17 17 15.6569 17 14C17 12.3431 15.6569 11 14 11C12.3431 11 11 12.3431 11 14C11 15.6569 12.3431 17 14 17Z" stroke="#1E1E1E" stroke-width="1.5" stroke-linecap="round" stroke-linejoin="round"/>
            <path d="M14 17C15.6569 17 17 15.6569 17 14C17 12.3431 15.6569 11 14 11C12.3431 11 11 12.3431 11 14C11 15.6569 12.3431 17 14 17Z" stroke="black" stroke-opacity="0.2" stroke-width="1.5" stroke-linecap="round" stroke-linejoin="round"/>
            <path d="M14 17C15.6569 17 17 15.6569 17 14C17 12.3431 15.6569 11 14 11C12.3431 11 11 12.3431 11 14C11 15.6569 12.3431 17 14 17Z" stroke="black" stroke-opacity="0.2" stroke-width="1.5" stroke-linecap="round" stroke-linejoin="round"/>
            <path d="M4 7C5.65685 7 7 5.65685 7 4C7 2.34315 5.65685 1 4 1C2.34315 1 1 2.34315 1 4C1 5.65685 2.34315 7 4 7Z" stroke="#1E1E1E" stroke-width="1.5" stroke-linecap="round" stroke-linejoin="round"/>
            <path d="M4 7C5.65685 7 7 5.65685 7 4C7 2.34315 5.65685 1 4 1C2.34315 1 1 2.34315 1 4C1 5.65685 2.34315 7 4 7Z" stroke="black" stroke-opacity="0.2" stroke-width="1.5" stroke-linecap="round" stroke-linejoin="round"/>
            <path d="M4 7C5.65685 7 7 5.65685 7 4C7 2.34315 5.65685 1 4 1C2.34315 1 1 2.34315 1 4C1 5.65685 2.34315 7 4 7Z" stroke="black" stroke-opacity="0.2" stroke-width="1.5" stroke-linecap="round" stroke-linejoin="round"/>
        </g>
    </symbol> 

<!-- exit -->
     <symbol id="svg-exit" viewBox="0 0 20 22">
        <g>
            <path d="M6 15V17C6 19.2091 7.79086 21 10 21H15C17.2091 21 19 19.2091 19 17V5C19 2.79086 17.2091 1 15 1H10C7.79086 1 6 2.79086 6 5V7" stroke="#1E1E1E" stroke-width="1.5" stroke-linecap="round"/>
            <path d="M6 15V17C6 19.2091 7.79086 21 10 21H15C17.2091 21 19 19.2091 19 17V5C19 2.79086 17.2091 1 15 1H10C7.79086 1 6 2.79086 6 5V7" stroke="black" stroke-opacity="0.2" stroke-width="1.5" stroke-linecap="round"/>
            <path d="M6 15V17C6 19.2091 7.79086 21 10 21H15C17.2091 21 19 19.2091 19 17V5C19 2.79086 17.2091 1 15 1H10C7.79086 1 6 2.79086 6 5V7" stroke="black" stroke-opacity="0.2" stroke-width="1.5" stroke-linecap="round"/>
            <path d="M11 14L13.2929 11.7071C13.6834 11.3166 13.6834 10.6834 13.2929 10.2929L11 8" stroke="#1E1E1E" stroke-width="1.5" stroke-linecap="round"/>
            <path d="M11 14L13.2929 11.7071C13.6834 11.3166 13.6834 10.6834 13.2929 10.2929L11 8" stroke="black" stroke-opacity="0.2" stroke-width="1.5" stroke-linecap="round"/>
            <path d="M11 14L13.2929 11.7071C13.6834 11.3166 13.6834 10.6834 13.2929 10.2929L11 8" stroke="black" stroke-opacity="0.2" stroke-width="1.5" stroke-linecap="round"/>
            <path d="M13 11L1 11" stroke="#1E1E1E" stroke-width="1.5" stroke-linecap="round"/>
            <path d="M13 11L1 11" stroke="black" stroke-opacity="0.2" stroke-width="1.5" stroke-linecap="round"/>
            <path d="M13 11L1 11" stroke="black" stroke-opacity="0.2" stroke-width="1.5" stroke-linecap="round"/>
        </g>
    </symbol> 

    <!-- title-logo -->
     <symbol id="svg-title" viewBox="0 0 891 69">
        <g>
           <path d="M61.8065 1.27999L82.1585 68.384H63.9185L59.2145 52.832H23.1185L18.4145 68.384H0.1745L20.5265 1.27999H61.8065ZM48.0785 15.968H34.2545L27.9185 37.28H54.4145L48.0785 15.968ZM147.343 0.895994H166.831V40.928C166.831 59.648 159.919 68 140.815 68H115.951C97.6145 68 88.9745 62.144 88.9745 43.424V0.895994H108.463V44.48C108.463 51.104 112.879 53.408 119.983 53.408H136.783C145.519 53.408 147.343 50.624 147.343 44.384V0.895994ZM253.814 0.895994V15.584H223.862V68H205.91V15.584H175.958V0.895994H253.814ZM316.636 0.895994C335.356 0.895994 341.212 9.536 341.212 27.968V41.984C341.212 61.088 332.86 68 314.14 68H289.18C270.46 68 262.204 61.088 262.204 41.984V27.968C262.204 9.536 268.06 0.895994 286.78 0.895994H316.636ZM322.78 42.944V27.008C322.78 19.904 320.476 15.584 313.852 15.584H289.564C282.94 15.584 280.636 19.904 280.636 27.008V42.944C280.636 51.584 283.42 53.408 289.66 53.408H313.756C319.996 53.408 322.78 51.584 322.78 42.944ZM431.759 26.24L431.855 43.808C431.855 51.68 430.895 54.56 430.415 56.192C428.975 60.896 425.999 64.544 420.911 66.368C418.511 67.232 414.383 68.096 409.007 68.096H353.999V53.408H405.743C412.559 53.408 413.999 49.28 413.999 43.904V40.928H354.095L353.999 24.992C353.999 17.216 354.959 14.336 355.439 12.704C356.879 7.904 359.855 4.352 364.943 2.528C367.343 1.568 371.471 0.799995 376.847 0.799995H427.535V15.488H380.111C373.199 15.488 371.855 19.616 371.855 24.992V26.24H431.759ZM498.23 0.895994C516.95 0.895994 522.806 9.536 522.806 27.968V41.984C522.806 61.088 514.454 68 495.734 68H470.774C452.054 68 443.798 61.088 443.798 41.984V27.968C443.798 9.536 449.654 0.895994 468.374 0.895994H498.23ZM504.374 42.944V27.008C504.374 19.904 502.07 15.584 495.446 15.584H471.158C464.534 15.584 462.23 19.904 462.23 27.008V42.944C462.23 51.584 465.014 53.408 471.254 53.408H495.35C501.59 53.408 504.374 51.584 504.374 42.944ZM594.249 0.895994H613.737V40.928C613.737 59.648 606.825 68 587.721 68H562.857C544.521 68 535.881 62.144 535.881 43.424V0.895994H555.369V44.48C555.369 51.104 559.785 53.408 566.889 53.408H583.689C592.425 53.408 594.249 50.624 594.249 44.384V0.895994ZM628.24 0.895994H657.328L688.048 52.448V0.895994H706.096V68H676.72L646.288 16.448V68H628.24V0.895994ZM721.334 68V0.895994H772.502C791.222 0.895994 799.478 7.904 799.478 26.912V41.024C799.478 59.36 793.622 68 774.902 68H721.334ZM739.19 15.584V53.408H772.118C778.742 53.408 781.046 48.992 781.046 41.984V26.048C781.046 17.312 778.262 15.584 772.022 15.584H739.19ZM890.009 26.24L890.105 43.808C890.105 51.68 889.145 54.56 888.665 56.192C887.225 60.896 884.249 64.544 879.161 66.368C876.761 67.232 872.633 68.096 867.257 68.096H812.249V53.408H863.993C870.809 53.408 872.249 49.28 872.249 43.904V40.928H812.345L812.249 24.992C812.249 17.216 813.209 14.336 813.689 12.704C815.129 7.904 818.105 4.352 823.193 2.528C825.593 1.568 829.721 0.799995 835.097 0.799995H885.785V15.488H838.361C831.449 15.488 830.105 19.616 830.105 24.992V26.24H890.009Z" fill="#A33419"/>
        </g>
    </symbol> 

    <!-- logotype -->
     <symbol id="svg-logo" viewBox="0 0 339 18">
        <g>
            <path d="M41.4277 8.63965C41.4277 9.95965 42.5081 11.04 43.8281 11.04H55.7793C57.0993 11.04 58.1797 9.95965 58.1797 8.63965V0.240234H65.7637V8.63965C65.7637 13.2716 61.9953 17.2803 57.3633 17.2803H42.2441C37.6121 17.2803 33.8438 13.2716 33.8438 8.63965V0.240234H41.4277V8.63965ZM126.49 0C131.122 0 134.89 4.0078 134.891 8.63965C134.891 13.2716 131.122 17.2803 126.49 17.2803H108.971C104.339 17.2803 100.57 13.2716 100.57 8.63965C100.571 4.0078 104.339 0 108.971 0H126.49ZM195.115 0C199.747 0 203.515 4.0078 203.516 8.63965C203.516 13.2716 199.747 17.2803 195.115 17.2803H177.596C172.964 17.2803 169.195 13.2716 169.195 8.63965C169.196 4.0078 172.964 0 177.596 0H195.115ZM212.545 8.63965C212.545 9.95965 213.625 11.04 214.945 11.04H226.896C228.216 11.04 229.297 9.95965 229.297 8.63965V0.240234H236.881V8.63965C236.881 13.2716 233.112 17.2803 228.48 17.2803H213.361C208.729 17.2803 204.961 13.2716 204.961 8.63965V0.240234H212.545V8.63965ZM35.7598 17.04H27.2158L25.2725 14.6396H10.4883L8.54395 17.04H0L13.6084 0.240234H22.1523L35.7598 17.04ZM99.6074 6H87.415V17.04H79.8311V6H67.6875V0.240234H99.6074V6ZM167.044 6H144.22C143.644 6.00001 143.428 6.43173 143.428 6.71973C143.428 7.00772 143.644 7.44042 144.22 7.44043H162.771C166.035 7.44043 168.004 9.36012 168.004 12.1201C168.004 14.8801 166.035 17.04 162.771 17.04H136.804V11.2803H159.628C160.204 11.2802 160.42 10.8475 160.42 10.5596C160.42 10.2716 160.204 9.83994 159.628 9.83984H141.076C137.812 9.83984 135.844 7.92007 135.844 5.16016C135.844 2.40016 137.812 0.240234 141.076 0.240234H167.044V6ZM263.141 9.83984V0.240234H270.725V17.04H263.141L246.389 7.44043V17.04H238.805V0.240234H246.389L263.141 9.83984ZM296.889 0.240234C301.52 0.240383 305.288 4.0079 305.288 8.63965C305.288 13.2716 301.521 17.0399 296.889 17.04H272.648V0.240234H296.889ZM337.458 6H314.634C314.058 6 313.842 6.43173 313.842 6.71973C313.842 7.00773 314.058 7.44043 314.634 7.44043H333.186C336.45 7.44043 338.418 9.36012 338.418 12.1201C338.418 14.8801 336.45 17.04 333.186 17.04H307.218V11.2803H330.042C330.618 11.2802 330.834 10.8475 330.834 10.5596C330.834 10.2716 330.618 9.83997 330.042 9.83984H311.49C308.226 9.83984 306.258 7.92007 306.258 5.16016C306.258 2.40016 308.226 0.240234 311.49 0.240234H337.458V6ZM110.53 6.24023C109.21 6.24026 108.13 7.31982 108.13 8.63965C108.13 9.95964 109.21 11.04 110.53 11.04H124.931C126.251 11.0398 127.33 9.95953 127.33 8.63965C127.33 7.31993 126.25 6.24043 124.931 6.24023H110.53ZM179.155 6.24023C177.835 6.24025 176.755 7.31982 176.755 8.63965C176.755 9.95964 177.835 11.04 179.155 11.04H193.556C194.876 11.0398 195.955 9.95953 195.955 8.63965C195.955 7.31993 194.875 6.24043 193.556 6.24023H179.155ZM280.208 11.04H295.208C296.696 11.04 297.729 10.0316 297.729 8.63965C297.728 7.24783 296.696 6.24023 295.208 6.24023H280.208V11.04ZM14.376 9.83984H21.3838L17.8799 5.51953L14.376 9.83984Z" fill="#A33419"/>
        </g>
    </symbol> 
</svg>